<svg preserveAspectRatio="none" width="100%" height="100%" overflow="visible" style="display: block;" viewBox="0 0 16.7578 16.7559" fill="none" xmlns="http://www.w3.org/2000/svg">
<path id="Union" d="M14.1035 5.94629C15.5695 5.94652 16.7578 7.03555 16.7578 8.37793C16.7575 9.7201 15.5693 10.8084 14.1035 10.8086C13.912 10.8086 13.7249 10.7892 13.5449 10.7539C11.4168 10.5176 8.85544 8.7508 8.42285 8.44336C8.71597 8.85435 10.3088 11.1551 10.6836 13.1963C10.7798 13.4809 10.8359 13.7876 10.8359 14.1084C10.8358 15.5706 9.74428 16.7557 8.39844 16.7559C7.05256 16.7558 5.96108 15.5706 5.96094 14.1084C5.96094 13.907 5.98327 13.7109 6.02246 13.5225C6.27138 11.4121 8.01578 8.88621 8.33008 8.44531C7.88623 8.76035 5.33453 10.5179 3.21289 10.7539C3.03297 10.7892 2.84572 10.8086 2.6543 10.8086C1.1883 10.8086 0.000320837 9.72019 0 8.37793C0 7.03542 1.1881 5.94631 2.6543 5.94629C2.9833 5.94636 3.29813 6.00425 3.58887 6.10449C5.71115 6.50038 8.10597 8.18924 8.37402 8.38184C8.37581 8.37939 8.37757 8.37841 8.37793 8.37793C8.37821 8.37831 8.37922 8.3796 8.38086 8.38184C8.6414 8.19445 11.0417 6.50109 13.168 6.10449C13.459 6.00407 13.7741 5.94629 14.1035 5.94629ZM8.35742 0C9.70298 0.00047131 10.7938 1.18553 10.7939 2.64746C10.7939 2.84761 10.7731 3.04302 10.7344 3.23047C10.4632 5.54273 8.39344 8.35556 8.37695 8.37793C8.35935 8.35402 6.48639 5.80346 6.07324 3.56445C5.97603 3.27861 5.91995 2.97 5.91992 2.64746C5.9201 1.18535 7.01164 0.000186991 8.35742 0Z" fill="var(--fill-0, #aef17e)"/>
</svg>
