<svg preserveAspectRatio="none" width="100%" height="100%" overflow="visible" style="display: block;" viewBox="0 0 84.11 24.7191" fill="none" xmlns="http://www.w3.org/2000/svg">
<g id="&#229;&#155;&#189;&#229;&#174;&#182;&#229;&#156;&#176;&#231;&#144;&#134;">
<path id="Vector" d="M0.0336988 0.030356C1.97192 -0.030551 4.17403 0.0189853 6.12767 0.0192105L17.2688 0.0286124L17.2708 24.7107L0.0466447 24.719C-0.0481496 22.0046 0.0308832 18.8063 0.0308832 16.0633L0.0336988 0.030356ZM2.52272 22.2277L14.7613 22.2303L14.7638 9.03807C14.7632 6.88353 14.7932 4.64888 14.7537 2.50295C10.794 2.49782 6.45776 2.41401 2.52334 2.50745L2.51574 14.3413C2.51552 16.9494 2.48614 19.6246 2.52272 22.2277Z" fill="var(--fill-0, white)"/>
<path id="Vector_2" d="M49.6997 13.6053C51.0074 13.5939 53.4848 13.2907 54.2548 14.5747C55.1324 16.0387 54.5881 17.7315 53.1881 18.6522C53.6801 19.7885 54.3742 21.1007 54.9185 22.2437C55.8197 19.4024 56.9281 16.4472 57.8839 13.603L59.124 13.6025C59.7032 15.2407 60.2633 17.1431 60.7975 18.8209C61.0131 19.6945 61.5879 21.3053 61.875 22.2237L60.2161 22.211C60.0404 21.7482 59.6655 20.3575 59.5597 19.8753C58.6923 19.8808 57.8248 19.877 56.9574 19.8637C56.7164 20.6518 56.4665 21.437 56.2064 22.219L53.2134 22.2165C52.7783 21.3335 52.2075 19.8864 51.8225 18.9648L51.1898 18.9672C51.1335 19.9394 51.1639 21.2246 51.1628 22.2227L49.6879 22.2185C49.6361 19.5439 49.6401 16.2687 49.6997 13.6053ZM51.1836 17.8803C51.8337 17.8648 52.2526 17.8699 52.7609 17.4004C53.2619 16.6787 53.487 15.6027 52.637 15.0193C52.1934 14.7147 51.6992 14.7718 51.187 14.7857C51.1678 15.7594 51.1431 16.9114 51.1836 17.8803ZM57.3598 18.7974L58.3945 18.7923L59.312 18.7949C59.1499 18.2647 58.5014 15.664 58.3219 15.3833C58.0275 16.576 57.643 17.6778 57.3598 18.7974Z" fill="var(--fill-0, #FEFEFE)"/>
<path id="Vector_3" d="M47.1794 2.41588C51.9974 1.6654 53.014 10.2798 48.2371 11.2558C43.1704 11.8483 42.4898 3.31659 47.1794 2.41588ZM48.1161 10.002C48.6858 9.80573 49.1158 9.45256 49.3511 8.88666C50.0981 7.09064 50.0565 3.45163 47.3162 3.64466C46.7302 3.8271 46.3024 4.13844 46.0378 4.71351C45.2396 6.44801 45.3747 10.3606 48.1161 10.002Z" fill="var(--fill-0, #FEFEFE)"/>
<path id="Vector_4" d="M37.7762 13.4655C41.6127 13.6472 42.3309 19.4776 39.7249 21.6145C38.9894 22.2176 38.4067 22.3226 37.4983 22.3706C32.6542 21.9282 32.74 13.5109 37.7762 13.4655ZM37.6866 21.1263C39.5945 20.8653 39.8379 18.5038 39.6171 16.9583C39.4422 15.7339 38.9118 14.7833 37.5663 14.6947C37.0507 14.7387 36.5717 14.9082 36.2382 15.3493C35.2337 16.6779 35.2514 19.5454 36.5105 20.7155C36.8595 21.0398 37.2494 21.0832 37.6866 21.1263Z" fill="var(--fill-0, #FEFEFE)"/>
<path id="Vector_5" d="M22.2979 2.52132L23.3462 2.51986C23.6501 2.8652 24.2685 3.78748 24.5596 4.2006C25.5975 5.6689 26.5983 7.16298 27.5612 8.68154C27.6154 6.70882 27.5672 4.51487 27.5711 2.5198L28.7438 2.5167C28.7773 5.32957 28.7763 8.34019 28.7438 11.1501C28.3905 11.1545 28.0371 11.1511 27.684 11.1398C27.3263 10.7147 26.7484 9.84542 26.4133 9.36644C25.4037 7.92893 24.4278 6.46806 23.4865 4.98496C23.4884 7.01364 23.5206 9.12259 23.4754 11.1445L22.2987 11.1456C22.2219 8.44247 22.251 5.23731 22.2979 2.52132Z" fill="var(--fill-0, #FEFEFE)"/>
<path id="Vector_6" d="M57.4949 2.5189L58.6911 2.5167V11.1423C58.3032 11.1529 57.9812 11.145 57.5939 11.1285C56.2643 9.35304 54.5779 6.84583 53.4199 4.97139L53.4076 11.1434L52.2378 11.1396C52.1973 8.29482 52.2311 5.36887 52.235 2.51924L53.2989 2.52216C54.7479 4.52928 56.145 6.57344 57.4887 8.65255C57.4763 6.608 57.4785 4.56339 57.4949 2.5189Z" fill="var(--fill-0, #FEFEFE)"/>
<path id="Vector_7" d="M68.1496 13.6022L69.5974 13.6038C69.6368 14.6557 69.612 15.8442 69.6137 16.9062L72.6557 16.9033L72.6551 13.611L74.1339 13.6087C74.135 16.4479 74.1733 19.3884 74.1232 22.2194L73.155 22.2194L72.6579 22.2161L72.6433 18.069C71.6503 18.0513 70.6134 18.0673 69.6165 18.0683L69.6036 22.2221L68.1287 22.2158C68.0696 20.1586 68.1473 18.0677 68.1192 16.007C68.1079 15.2158 68.109 14.3916 68.1496 13.6022Z" fill="var(--fill-0, #FEFEFE)"/>
<path id="Vector_8" d="M62.343 13.6017C64.3177 13.5929 67.269 13.1311 67.3214 16.0017C67.3388 16.8008 67.0332 17.573 66.4736 18.1437C65.707 18.9157 64.9718 18.9711 63.9794 18.9652L63.9079 18.9699C63.757 19.1257 63.8195 21.8237 63.819 22.2228L62.3526 22.2151C62.2642 19.4924 62.3402 16.3554 62.343 13.6017ZM63.8218 17.8894C64.5243 17.8518 64.8221 17.8751 65.3771 17.4252C65.8955 16.7143 66.132 15.6523 65.3157 15.0416C64.8738 14.7109 64.3481 14.7694 63.828 14.7852L63.8218 17.8894Z" fill="var(--fill-0, #FEFEFE)"/>
<path id="Vector_9" d="M62.0399 2.51723L63.2648 2.51937L66.0186 11.1492L64.3574 11.1378C64.1272 10.4959 63.8677 9.45827 63.6741 8.77607L62.8258 8.79093C62.2538 8.79893 61.6825 8.79516 61.1106 8.77968L60.3512 11.1391C59.9189 11.15 59.5063 11.1414 59.074 11.1321C59.9189 8.39859 61.0847 5.23767 62.0399 2.51723ZM61.4911 7.71476L62.4278 7.71285L63.4664 7.72191C63.1962 6.92787 63.0059 6.12268 62.7774 5.31844C62.7137 5.09469 62.5623 4.47751 62.4773 4.29209C62.1857 5.44335 61.857 6.58483 61.4911 7.71476Z" fill="var(--fill-0, #FEFEFE)"/>
<path id="Vector_10" d="M32.1099 2.51931L33.3368 2.52033L36.0769 11.145C35.5266 11.1478 34.9762 11.1465 34.4259 11.1411C34.2025 10.4966 33.9241 9.46778 33.759 8.80005L33.19 8.79133C32.5149 8.79189 31.8397 8.79651 31.1646 8.80523C30.9234 9.58565 30.6744 10.3637 30.4176 11.1391C30.0064 11.1517 29.5514 11.1432 29.1364 11.1444C29.998 8.41626 31.1444 5.22641 32.1099 2.51931ZM31.5601 7.71313L32.6429 7.71352C32.909 7.71617 33.247 7.71037 33.5068 7.72456C33.3605 7.19103 32.7059 4.66761 32.5356 4.29389C32.2626 5.46469 31.9194 6.56563 31.5601 7.71313Z" fill="var(--fill-0, #FEFEFE)"/>
<path id="Vector_11" d="M25.4747 13.4635C26.2582 13.4581 26.846 13.7014 27.4939 14.1084L27.0258 15.1175C26.2485 14.8191 25.509 14.521 24.6512 14.811C21.5497 15.8599 22.4648 22.1933 26.2931 20.9391C26.2913 20.0958 26.2672 19.0981 26.328 18.2705C26.6233 18.2608 27.528 18.1985 27.7705 18.3245L27.7945 18.4884L27.7894 21.8346C20.2781 24.974 18.7667 13.5622 25.4747 13.4635Z" fill="var(--fill-0, #FEFEFE)"/>
<path id="Vector_12" d="M45.2111 13.5053C46.369 13.3725 47.0591 13.505 48.0386 14.1065L47.5731 15.125C42.141 12.4968 41.9879 22.5392 46.8599 20.9319C46.8531 20.0462 46.861 19.1604 46.8835 18.275L47.9108 18.2678C48.06 18.2597 48.1174 18.2686 48.266 18.2901C48.4174 18.4808 48.3431 21.3788 48.3403 21.8397C46.8266 22.3922 44.9859 22.7073 43.6147 21.699C40.5767 19.4657 41.3045 14.2634 45.2111 13.5053Z" fill="var(--fill-0, #FEFEFE)"/>
<path id="Vector_13" d="M29.1449 13.605C30.4232 13.5795 31.7852 13.602 33.0701 13.6014C33.0774 13.9843 33.0634 14.393 33.0563 14.7781C32.246 14.7742 31.4356 14.7767 30.6253 14.7858C30.6109 15.5568 30.61 16.328 30.6226 17.099L33.0147 17.1096L33.0119 18.2768C32.2196 18.269 31.4179 18.2768 30.6247 18.2786C30.6016 18.9866 30.6156 19.7723 30.6143 20.4861L30.6234 21.0359L33.5177 21.0393C33.5186 21.4344 33.5146 21.8294 33.5059 22.2243C32.0644 22.2008 30.5773 22.218 29.1305 22.2126C29.0583 20.1913 29.1556 18.1154 29.1173 16.0884C29.1019 15.275 29.1065 14.4167 29.1449 13.605Z" fill="var(--fill-0, #FEFEFE)"/>
<path id="Vector_14" d="M81.4018 13.5056C82.5254 13.3487 83.1766 13.5459 84.1099 14.1065C83.9709 14.4502 83.8054 14.8125 83.6562 15.1547C83.5273 15.0855 83.3951 15.0218 83.2605 14.9636C78.3936 12.816 78.1262 23.188 83.6461 20.7197C83.7919 21.0673 83.9225 21.4364 84.0531 21.7912C83.6028 22.031 83.2549 22.1941 82.7477 22.294C81.7429 22.4902 80.7004 22.2828 79.847 21.7165C76.845 19.6898 77.449 14.255 81.4018 13.5056Z" fill="var(--fill-0, #FEFEFE)"/>
<path id="Vector_15" d="M35.1999 2.51986C37.1938 2.49745 39.2256 2.51654 41.223 2.51502C41.2348 2.89487 41.2269 3.31469 41.2275 3.69798L38.9508 3.70079C38.9124 5.43005 38.9418 7.25986 38.9415 8.99672L38.9392 11.1503C38.4438 11.1439 37.9484 11.1401 37.4531 11.1389C37.3594 8.90525 37.4412 5.97051 37.4378 3.69606L35.2067 3.69347C35.1867 3.33276 35.1987 2.88778 35.1999 2.51986Z" fill="var(--fill-0, #FEFEFE)"/>
<path id="Vector_16" d="M66.4387 2.52052L67.9095 2.51618C67.8932 4.93242 67.8538 7.58925 67.9202 9.99159L70.8114 9.9912L70.8102 11.1469L66.4555 11.14C66.4015 10.1764 66.4336 8.97002 66.4353 7.99405L66.4387 2.52052Z" fill="var(--fill-0, #FEFEFE)"/>
<path id="Vector_17" d="M75.5467 13.6046L77.0069 13.6027C77.0502 14.3856 77.0283 15.4164 77.0277 16.2107C77.0114 18.1611 77.0091 20.1116 77.0193 22.062L77.0007 22.1461C76.807 22.2819 75.8518 22.2183 75.5489 22.2117C75.4746 19.4618 75.5354 16.3791 75.5467 13.6046Z" fill="var(--fill-0, #FEFEFE)"/>
<path id="Vector_18" d="M41.6896 2.51883L43.1538 2.51618L43.1521 11.1478L41.7009 11.138C41.6626 8.38837 41.6108 5.25154 41.6896 2.51883Z" fill="var(--fill-0, #FEFEFE)"/>
</g>
</svg>
