<svg preserveAspectRatio="none" width="100%" height="100%" overflow="visible" style="display: block;" viewBox="0 0 22.991 25.8171" fill="none" xmlns="http://www.w3.org/2000/svg">
<g id="Vector">
<path d="M10.7211 0.967294C10.9568 0.831057 11.2241 0.759326 11.4963 0.759326C11.7685 0.759326 12.0359 0.831057 12.2715 0.967294L21.4053 6.24158C21.6565 6.38665 21.8652 6.5953 22.0102 6.84656C22.1553 7.09782 22.2317 7.38283 22.2317 7.67297V18.2215C22.2316 18.4936 22.1599 18.7608 22.0238 18.9964C21.8878 19.232 21.6921 19.4276 21.4565 19.5637L12.3228 24.8363C12.0715 24.9814 11.7865 25.0578 11.4963 25.0578C11.2062 25.0578 10.9212 24.9814 10.6699 24.8363L1.53617 19.5637C1.30026 19.4279 1.10426 19.2323 0.967891 18.9967C0.831523 18.7611 0.75959 18.4938 0.759326 18.2215V7.67297C0.759333 7.38283 0.835709 7.09782 0.980778 6.84656C1.12585 6.5953 1.3345 6.38665 1.58576 6.24158L10.7211 0.967294ZM20.5788 9.54445C20.5788 9.13729 20.138 8.88281 19.7854 9.0864L12.5872 13.2425C12.4236 13.337 12.3228 13.5116 12.3228 13.7005V22.0096C12.3228 22.4168 12.7635 22.6712 13.1161 22.4677L20.3143 18.3131C20.478 18.2186 20.5788 18.044 20.5788 17.855V9.54445ZM2.41219 8.62832V17.8549C2.41219 18.0439 2.51304 18.2186 2.67675 18.3131L9.87663 22.4678C10.2292 22.6713 10.6699 22.4168 10.6699 22.0097V13.7021C10.6699 13.5132 10.5691 13.3386 10.4055 13.2441L2.41362 8.62749C2.41299 8.62713 2.41219 8.62759 2.41219 8.62832ZM11.7608 2.58111C11.5971 2.48663 11.3955 2.48662 11.2319 2.58109L4.03207 6.73726C3.67944 6.94082 3.67941 7.44979 4.03203 7.65338L11.2302 11.8095C11.3939 11.9039 11.5955 11.904 11.7591 11.8095L18.9589 7.65331C19.3116 7.44975 19.3116 6.94078 18.959 6.73719L11.7608 2.58111Z" fill="var(--fill-0, white)"/>
<path d="M11.4966 0.379443C11.8353 0.379495 12.1682 0.468733 12.4615 0.638232L21.5953 5.91265C21.9042 6.09103 22.161 6.34784 22.3394 6.65679C22.5177 6.96571 22.6109 7.31669 22.6109 7.67339V18.2212C22.6108 18.5598 22.5223 18.8929 22.3531 19.1861C22.1837 19.4794 21.9393 19.7228 21.646 19.8921L12.5123 25.1656C12.2035 25.3437 11.8531 25.437 11.4966 25.4371C11.1399 25.4371 10.789 25.3439 10.48 25.1656L1.34722 19.8931C1.05355 19.724 0.80897 19.4803 0.639209 19.1871C0.469496 18.8939 0.379824 18.561 0.379443 18.2222V7.67339C0.379452 7.31665 0.473544 6.96574 0.651904 6.65679C0.830295 6.34781 1.08707 6.09103 1.39604 5.91265L10.5308 0.639208C10.8242 0.469574 11.1577 0.379443 11.4966 0.379443ZM2.79155 17.855C2.79158 17.9083 2.82058 17.9573 2.86675 17.9839L10.066 22.1392C10.1655 22.1966 10.2906 22.1242 10.2906 22.0093V13.7017C10.2904 13.6486 10.2614 13.5994 10.2154 13.5728L2.79155 9.28374V17.855ZM20.1988 9.54448C20.1988 9.42959 20.0746 9.35812 19.9751 9.41558L12.7769 13.5708C12.7307 13.5975 12.7027 13.6474 12.7027 13.7007V22.0093C12.7027 22.1242 12.8268 22.1965 12.9263 22.1392L20.1246 17.9839C20.1706 17.9573 20.1988 17.9083 20.1988 17.855V9.54448ZM11.5708 2.90972C11.5247 2.88314 11.4676 2.88309 11.4214 2.90972L4.22222 7.06597C4.12271 7.12341 4.12271 7.2673 4.22222 7.32476L11.4205 11.481C11.4664 11.5073 11.5229 11.5073 11.5689 11.481L18.7691 7.32476C18.8686 7.26731 18.8686 7.12342 18.7691 7.06597L11.5708 2.90972Z" stroke="var(--stroke-0, white)" stroke-opacity="0.5" stroke-width="0.759326"/>
</g>
</svg>
