<svg preserveAspectRatio="none" width="100%" height="100%" overflow="visible" style="display: block;" viewBox="0 0 96.362 18.0649" fill="none" xmlns="http://www.w3.org/2000/svg">
<g id="Phibi">
<path id="Vector" d="M52.7314 3.38471C52.2524 3.38471 51.8506 3.22245 51.5261 2.89793C51.2015 2.5734 51.0393 2.17161 51.0393 1.69255C51.0393 1.21349 51.2015 0.811698 51.5261 0.487174C51.8506 0.162649 52.2524 0.000386225 52.7314 0.000386225C53.195 0.000386225 53.5891 0.162649 53.9136 0.487174C54.2382 0.811698 54.4004 1.21349 54.4004 1.69255C54.4004 2.17161 54.2382 2.5734 53.9136 2.89793C53.5891 3.22245 53.195 3.38471 52.7314 3.38471ZM54.0295 5.07688V17.8492H51.387V5.07688H54.0295Z" fill="var(--fill-0, white)"/>
<path id="Vector_2" d="M38.1362 6.97806C38.5843 6.35992 39.1947 5.85768 39.9674 5.47134C40.7555 5.06955 41.6287 4.86865 42.5868 4.86865C43.7149 4.86865 44.7348 5.13909 45.6466 5.67996C46.5584 6.22084 47.2769 6.99352 47.8024 7.998C48.3278 8.98702 48.5905 10.1229 48.5905 11.4055C48.5905 12.6881 48.3278 13.8394 47.8024 14.8594C47.2769 15.8639 46.5506 16.652 45.6234 17.2238C44.7117 17.7801 43.6994 18.0583 42.5868 18.0583C41.5978 18.0583 40.7169 17.8651 39.9442 17.4787C39.187 17.0924 38.5843 16.5979 38.1362 15.9952V17.8496H35.4936V0.696196H38.1362V6.97806ZM45.9016 11.4055C45.9016 10.5247 45.7161 9.76743 45.3452 9.13383C44.9898 8.48478 44.5108 7.998 43.9081 7.67347C43.3208 7.33349 42.6872 7.1635 42.0073 7.1635C41.3428 7.1635 40.7092 7.33349 40.1065 7.67347C39.5193 8.01345 39.0402 8.50796 38.6693 9.15701C38.3139 9.80606 38.1362 10.571 38.1362 11.4519C38.1362 12.3327 38.3139 13.1054 38.6693 13.7699C39.0402 14.4189 39.5193 14.9135 40.1065 15.2534C40.7092 15.5934 41.3428 15.7634 42.0073 15.7634C42.6872 15.7634 43.3208 15.5934 43.9081 15.2534C44.5108 14.898 44.9898 14.388 45.3452 13.7235C45.7161 13.059 45.9016 12.2864 45.9016 11.4055Z" fill="var(--fill-0, white)"/>
<path id="Vector_3" d="M30.5469 3.38471C30.0678 3.38471 29.666 3.22245 29.3415 2.89793C29.017 2.5734 28.8547 2.17161 28.8547 1.69255C28.8547 1.21349 29.017 0.811698 29.3415 0.487174C29.666 0.162649 30.0678 0.000386225 30.5469 0.000386225C31.0105 0.000386225 31.4046 0.162649 31.7291 0.487174C32.0536 0.811698 32.2159 1.21349 32.2159 1.69255C32.2159 2.17161 32.0536 2.5734 31.7291 2.89793C31.4046 3.22245 31.0105 3.38471 30.5469 3.38471ZM31.845 5.07688V17.8492H29.2024V5.07688H31.845Z" fill="var(--fill-0, white)"/>
<path id="Vector_4" d="M20.5727 4.86865C21.5462 4.86865 22.4116 5.07728 23.1689 5.49452C23.9415 5.91177 24.5442 6.52991 24.9769 7.34895C25.4251 8.16799 25.6492 9.15701 25.6492 10.316V17.8496H23.0298V10.7101C23.0298 9.56653 22.7439 8.6934 22.1721 8.09072C21.6003 7.47258 20.8199 7.1635 19.8309 7.1635C18.8419 7.1635 18.0537 7.47258 17.4665 8.09072C16.8947 8.6934 16.6088 9.56653 16.6088 10.7101V17.8496H13.9663V0.696196H16.6088V6.56082C17.057 6.01994 17.621 5.6027 18.301 5.30908C18.9964 5.01546 19.7536 4.86865 20.5727 4.86865Z" fill="var(--fill-0, white)"/>
<path id="Vector_5" d="M11.2656 6.53719C11.2656 7.35623 11.0725 8.12891 10.6861 8.85523C10.2998 9.58154 9.68165 10.1765 8.8317 10.6401C7.98176 11.0883 6.89228 11.3123 5.56328 11.3123H2.64256V17.8492H0V1.73887H5.56328C6.79956 1.73887 7.84267 1.95522 8.69262 2.38792C9.55802 2.80516 10.1993 3.37694 10.6166 4.10326C11.0493 4.82958 11.2656 5.64089 11.2656 6.53719ZM5.56328 9.15657C6.56776 9.15657 7.31725 8.93249 7.81177 8.48434C8.30628 8.02073 8.55354 7.37169 8.55354 6.53719C8.55354 4.77549 7.55678 3.89464 5.56328 3.89464H2.64256V9.15657H5.56328Z" fill="var(--fill-0, white)"/>
<path id="Vector_6" d="M61.706 1.55145C61.0395 0.695033 59.769 0.57329 58.8685 1.27953C57.968 1.98577 57.7783 3.25256 58.4449 4.10898L68.1006 16.5145C68.7672 17.3709 70.0376 17.4926 70.9381 16.7864C71.8387 16.0802 72.0283 14.8134 71.3618 13.957L61.706 1.55145Z" fill="var(--fill-0, white)"/>
<path id="Vector_7" d="M69.6385 1.55145C68.9719 0.695033 67.7015 0.57329 66.801 1.27953C65.9004 1.98577 65.7108 3.25256 66.3773 4.10898L76.0331 16.5145C76.6996 17.3709 77.9701 17.4926 78.8706 16.7864C79.7711 16.0802 79.9608 14.8134 79.2942 13.957L69.6385 1.55145Z" fill="var(--fill-0, white)"/>
<path id="Vector_8" d="M77.5688 1.55145C76.9023 0.695033 75.6318 0.57329 74.7313 1.27953C73.8308 1.98577 73.6411 3.25256 74.3077 4.10898L83.9634 16.5145C84.63 17.3709 85.9004 17.4926 86.8009 16.7864C87.7015 16.0802 87.8911 14.8134 87.2246 13.957L77.5688 1.55145Z" fill="var(--fill-0, white)"/>
<path id="Vector_9" d="M85.3763 1.56254C84.7022 0.699699 83.4562 0.546715 82.5934 1.22084C81.7306 1.89497 81.5776 3.14093 82.2517 4.00378L92.0166 16.5023C92.6908 17.3652 93.9367 17.5181 94.7996 16.844C95.6624 16.1699 95.8154 14.9239 95.1413 14.0611L85.3763 1.56254Z" fill="var(--fill-0, white)"/>
</g>
</svg>
