<svg preserveAspectRatio="none" width="100%" height="100%" overflow="visible" style="display: block;" viewBox="0 0 78.8494 29.5707" fill="none" xmlns="http://www.w3.org/2000/svg">
<g id="RM">
<path id="&#228;&#186;&#186;&#230;&#176;&#145;&#230;&#151;&#165;&#230;&#138;&#165;" d="M68.1253 17.4713C67.9873 17.077 67.5832 16.7222 67.1397 16.9144C66.8933 17.0179 66.3315 17.8803 66.2871 17.6536C66.0752 16.5695 67.5734 16.2639 67.7902 15.7021C68.0218 15.0861 67.4649 14.8151 67.0017 14.6327C66.531 14.4389 66.1063 14.1485 65.7549 13.7802C65.3754 13.3958 64.444 12.829 64.0941 13.5338C63.9956 13.8689 64.0547 14.5046 63.9266 14.9136C63.7787 15.3966 63.2268 15.4311 62.8917 15.7859C62.4137 16.3132 62.941 16.4955 63.2613 16.8996C63.557 17.284 63.3549 20.0093 62.8572 20.9407C62.6108 21.4039 56.2092 26.4897 55.1546 26.7558C53.9423 27.0515 53.9472 28.3328 54.4646 29.0425C55.125 29.9443 56.5443 29.5254 57.249 29.008C57.6925 28.6728 60.6593 25.5386 61.364 24.893C61.6498 24.6318 62.803 23.1238 62.8917 24.0897C62.9275 24.5295 62.8824 24.9721 62.7586 25.3957C62.6157 25.849 62.3299 26.539 62.3644 27.0318C62.4235 27.8203 63.8428 28.9045 64.582 28.5792C65.06 28.3624 65.0995 27.6478 65.0502 27.1304C65.0058 26.5883 65.1093 23.3554 65.2227 22.3008C65.2462 21.7381 65.4033 21.1891 65.681 20.6992C66.0851 20.024 68.5245 18.6146 68.1253 17.4713ZM50.6552 19.5214C50.4384 19.9896 49.5563 19.2257 49.3345 19.0187C49.1127 18.8216 48.8368 18.6738 48.8713 18.3337C48.9156 17.9887 49.3148 17.9395 49.3148 17.9395C49.4528 17.9148 50.6848 17.8655 50.7686 18.0824C50.813 18.565 50.7746 19.0517 50.6552 19.5214ZM51.7887 12.0307C50.9558 11.9223 49.9949 12.76 49.3542 13.1641C49.0388 13.3613 47.2351 14.273 47.5062 14.7411C47.6935 15.0565 48.8171 14.7855 49.1817 14.7017C50.2166 14.4652 50.7587 13.7752 51.0199 13.9477C51.2417 14.0956 51.0988 16.461 50.6749 16.4167C49.7485 16.328 49.1965 15.5986 48.206 15.1945C47.9004 15.0713 47.2992 14.8397 47.5062 15.3966C47.5653 15.5641 47.7871 15.7859 47.8659 15.9485C48.0483 16.3181 48.2109 17.6044 48.0483 17.8853C47.723 18.4224 47.3781 17.4713 47.2943 17.2643C47.1366 16.8701 47.038 16.466 46.9 16.0668C46.7818 15.7021 46.4713 14.7608 46.0573 14.8151C45.5793 14.8791 45.9292 16.9686 45.8405 17.4122C45.5448 18.9103 45.4167 19.3538 45.3674 20.3345C45.328 21.1279 45.3674 22.4437 46.2791 22.6852C47.4963 23.0105 47.6688 21.9657 47.7772 21.2561C47.8019 21.0885 47.8413 20.7337 47.9251 20.5908C48.0532 20.3789 48.2208 20.3444 48.3785 20.5514C48.5066 20.7288 48.4524 20.99 48.6446 21.1624C48.8368 21.3398 49.0536 21.3103 49.3049 21.3596C49.6943 21.4335 50.1772 21.2856 50.4187 21.6552C50.6651 22.0495 50.5862 22.4684 51.0593 22.7345C52.0942 23.3012 52.587 22.1826 52.6659 21.4335C52.7595 20.5366 52.8039 19.6939 52.8482 18.8019C52.8926 17.9 52.932 16.9193 53.1636 16.0471C53.2824 15.6054 53.4172 15.1681 53.5677 14.7362C53.7413 14.3406 53.7624 13.8947 53.6269 13.4845C53.3361 12.7354 52.1139 12.0701 51.7838 12.0307H51.7887ZM39.0594 12.2081C39.4044 11.8878 39.9859 11.464 39.8972 10.9514C39.5621 8.95556 36.4574 10.3059 35.2796 10.8923C33.5695 11.7498 34.3925 11.3408 31.3963 12.8142C30.9429 13.0311 31.1499 13.3563 31.2188 13.5535C31.4653 14.2631 32.579 14.6031 33.0521 14.3025C33.4463 14.0512 37.2163 11.395 37.4184 11.6759C37.7289 12.0997 35.8168 13.5633 34.9297 13.9132C34.5355 14.0709 33.9145 14.6376 33.7913 15.0713C33.7142 15.2958 33.7195 15.5403 33.8061 15.7612L33.7568 15.7415C33.6139 15.7908 33.2295 15.7267 33.1014 15.8155C32.9831 15.8943 33.2344 17.4269 33.7272 18.3781C33.9047 18.7132 34.0574 19.0187 33.6435 19.2257C33.1654 19.4622 32.3277 20.4331 33.264 20.5218C33.4661 20.5415 33.6829 20.5514 33.8554 20.4528C33.9884 20.3739 34.2398 20.2261 34.432 20.2803C34.6291 20.3394 34.7966 20.921 34.9248 21.123C35.3338 21.744 36.8172 24.4593 37.5219 24.6367C38.1379 24.7944 39.1629 24.548 39.3699 23.868C39.4783 23.5279 39.567 21.0294 39.5621 20.6598C39.5572 20.3296 39.5818 19.9008 39.4931 19.6002C39.4093 19.3193 39.1974 18.8955 38.8426 18.9941C38.4631 19.0926 38.4434 19.6742 38.3794 19.9797C38.3005 20.3493 38.2069 22.0051 37.8225 22.0101C37.5514 22.0101 36.2701 19.96 36.1272 19.6741C35.9794 19.3834 35.8562 19.1074 36.0533 18.8265C36.3983 18.3288 37.5317 17.6733 36.9206 17.0031C36.4377 16.4807 35.3437 16.6187 35.181 17.2791C35.1318 17.4762 35.25 18.2499 34.841 17.969C34.6044 17.8064 34.1708 16.6532 34.3285 16.4906C34.3925 16.4265 34.6537 16.3773 34.8903 16.3526H35.1367C35.9745 16.2787 37.1769 15.8352 37.443 15.1748C37.5317 14.953 37.6401 14.6672 37.448 14.5144C37.2952 14.3863 37.2459 14.3666 37.2015 14.1941C37.1523 13.9871 38.7046 12.5383 39.0594 12.2081ZM75.409 16.53C76.6706 15.9288 79.2135 15.9584 78.8045 13.5239C78.7207 13.0212 78.4694 11.9814 77.7597 12.0208C77.1437 12.0553 76.6608 13.0064 76.3897 13.4697C75.6998 14.6524 74.3495 15.8105 73.3934 16.8011C72.1861 18.0528 70.2296 21.4975 70.0177 21.4975C69.4559 21.4926 70.269 19.2454 70.4021 18.9152C71.1857 16.9686 73.7039 10.8874 74.0834 10.1925C74.7881 8.89642 75.3006 8.20649 76.094 6.98432C77.6612 4.56956 74.9507 4.6484 74.9507 4.6484C74.1869 4.70754 73.699 5.21021 73.2604 5.55517C72.7774 5.92478 72.2748 6.17611 71.7425 6.4718C71.2201 6.76749 70.5598 7.07795 71.0132 7.71368C71.3976 8.25577 71.8411 8.30998 72.4177 8.36911C72.6049 8.40026 72.7947 8.41346 72.9844 8.40854C72.8908 8.96541 71.0378 12.2672 70.6091 13.5485C69.7319 16.1851 69.0518 21.123 67.7754 23.4047C67.6087 23.6743 67.4994 23.9754 67.4544 24.2891C67.4095 24.6029 67.4299 24.9226 67.5142 25.2281C67.6769 25.7603 68.6132 26.1152 69.2046 25.6421C69.6777 25.2675 69.7417 23.385 71.3976 20.4774C71.8608 19.6692 72.1368 20.0043 72.5212 20.7534C72.8711 21.4286 73.1766 23.1485 73.6448 23.7793C75.1478 25.7948 76.8332 25.2183 77.0599 24.5086C77.4049 23.4589 76.7643 22.6704 76.3059 22.2121C75.0049 20.9259 71.708 19.9797 72.5212 18.5161C73.1273 17.4319 74.7191 16.8602 75.409 16.53ZM20.0617 5.14614C20.0173 4.38722 19.5294 3.80077 18.8247 3.39667C18.4945 3.20448 17.3216 2.65253 17.0506 2.92357L17.1639 2.89893C16.7007 3.10591 17.0161 4.53999 16.9717 4.95395C16.8929 5.72273 16.4839 6.66399 16.2177 7.40814C15.6609 8.95063 15.1483 10.3206 14.5964 11.8631C13.9969 13.4757 13.3041 15.0521 12.5217 16.5842C11.7529 18.1119 11.0038 19.684 10.2203 21.192C9.77673 22.0544 9.30856 22.907 8.74183 23.6807C8.21452 24.3854 7.62808 25.2478 6.98743 25.8688C6.46012 26.3764 5.76526 26.8544 5.09997 27.1057C4.29176 27.4162 3.55748 27.4802 2.73449 27.6379C2.35502 27.7069 0.713969 27.8154 0.344362 27.9533C-0.710249 28.3377 0.950517 28.8503 1.41869 28.8453C3.09424 28.8453 4.88313 28.9636 6.39606 28.4166C7.85477 27.8843 9.15579 26.7903 10.0872 25.5879C11.1221 24.2524 12.9849 20.8323 13.7044 19.3341C14.5915 17.5009 18.189 10.6607 18.5487 9.68491C19.0169 8.40361 20.1306 6.49644 20.0617 5.14122V5.14614ZM62.4235 13.0311C62.8584 13.1505 63.3217 13.1103 63.7295 12.9177C64.1213 12.7228 64.5669 12.6639 64.996 12.7502C65.3607 12.7995 65.6761 12.8487 66.0555 12.7847C66.5237 12.7108 66.6567 12.6221 67.0411 12.3904C67.4157 12.1637 67.7656 12.1982 68.1795 12.1342C68.5277 12.0608 68.8416 11.8735 69.0715 11.6019C69.5939 11.0599 70.0078 10.1679 69.3524 9.62085C69.0469 9.36459 68.1549 8.87671 67.2185 9.25617C66.5357 9.6449 65.8759 10.0727 65.2424 10.5375C64.4933 11.0697 63.5816 11.2668 62.8178 11.7202C62.5221 11.8927 62.113 12.1243 61.9208 12.4101C61.6695 12.7699 62.0687 12.9325 62.4235 13.0311ZM33.7223 21.2314C32.8747 20.8717 32.5741 21.4335 32.0566 21.7292C31.8053 21.3349 32.0665 20.7731 32.1305 20.3542C32.2045 19.8614 32.648 17.3974 30.7507 16.4265C30.5979 16.3477 30.3219 16.3132 30.3219 16.535L30.1495 17.9395C29.7158 21.2659 29.4004 22.0791 29.3708 22.6261C29.3511 23.1534 29.3166 23.9025 29.6566 24.3164C29.9375 24.6466 30.386 24.893 30.8492 24.7649C31.2928 24.6515 32.7071 23.4195 33.0866 23.0548C33.4759 22.6852 34.5502 21.5764 33.7223 21.2314ZM62.8966 8.43318C63.2416 8.54652 64.5377 8.53667 64.3603 9.02455C64.2568 9.31531 63.8773 9.51736 63.6605 9.72434C63.5323 9.85247 63.01 10.3305 63.0691 10.503C63.1775 10.8529 64.7151 9.91653 65.0206 9.68491C65.3508 9.42865 65.6908 9.20689 66.0752 9.03441C66.4547 8.857 67.5044 8.48246 68.2879 7.85166C69.0617 7.21594 71.777 2.51454 71.8214 2.13015C71.9101 1.3318 71.0181 0.321541 70.2099 0.0159998C69.8649 -0.117059 69.4559 0.617229 69.3573 0.834065C69.1799 1.22831 68.1598 3.19955 67.8395 3.86484C67.511 4.5919 67.0041 5.22419 66.366 5.70302C65.6761 6.17119 64.9368 6.38802 64.1483 6.61964C63.7442 6.74284 62.0933 7.13216 61.9307 7.37364C61.7089 7.69889 62.5615 8.32476 62.8966 8.43318ZM25.2361 25.307C24.832 25.4252 22.5257 25.9969 22.1167 25.9082C19.8892 25.4548 19.7857 23.3801 16.0305 20.0635C15.9023 19.9452 14.5225 19.137 14.6309 19.7185C14.6309 19.7185 15.8186 21.7686 16.0798 22.1481C16.3656 22.5571 17.6222 25.4499 17.8194 25.8589C18.0066 26.2482 18.2038 26.6573 18.4107 27.0318C18.8296 27.7513 19.6181 28.7468 20.4953 28.9439C20.9389 29.0425 22.3828 28.6088 22.8165 28.3969C23.6887 27.9632 24.5511 27.4113 25.2953 26.7558C25.591 26.4996 25.9606 26.1595 26.0739 25.7801C26.2513 25.1788 25.6698 25.1788 25.2361 25.307Z" fill="var(--fill-0, white)"/>
</g>
</svg>
