<svg preserveAspectRatio="none" width="100%" height="100%" overflow="visible" style="display: block;" viewBox="0 0 138.397 29.5629" fill="none" xmlns="http://www.w3.org/2000/svg">
<g id="Microsoft">
<path id="Vector" d="M48.8605 17.0271L48.0355 19.3646H47.9667C47.8292 18.8375 47.5771 18.0354 47.1646 17.0729L42.7417 5.95831H38.4104V23.6729H41.275V12.7417C41.275 12.0542 41.275 11.275 41.2521 10.3125C41.2292 9.83124 41.1833 9.46457 41.1604 9.18957H41.2292C41.3667 9.87707 41.5271 10.3812 41.6417 10.7021L46.9584 23.6271H48.9751L54.2459 10.5875C54.3605 10.2896 54.4751 9.69374 54.5897 9.18957H54.6585C54.5897 10.4958 54.5439 11.6646 54.5209 12.375V23.6042H57.5689V5.91247H53.398L48.8605 17.0271ZM60.4564 10.9083H63.4356V23.6042H60.4564V10.9083ZM61.9689 5.54581C61.4648 5.54581 61.0523 5.72914 60.7085 6.04997C60.3648 6.37081 60.1814 6.78331 60.1814 7.28748C60.1814 7.76873 60.3648 8.18123 60.7085 8.50207C61.0523 8.8229 61.4648 8.98332 61.9689 8.98332C62.4731 8.98332 62.9085 8.79998 63.2294 8.50207C63.5731 8.18123 63.7565 7.76873 63.7565 7.28748C63.7565 6.80623 63.5731 6.39373 63.2294 6.04997C62.9314 5.72914 62.496 5.54581 61.9689 5.54581ZM74.0003 10.7937C73.4503 10.6792 72.8774 10.6104 72.3274 10.6104C70.9753 10.6104 69.7378 10.9083 68.7065 11.5042C67.6752 12.1 66.8502 12.925 66.3231 13.9563C65.7731 15.0104 65.4981 16.225 65.4981 17.6229C65.4981 18.8375 65.7731 19.9146 66.3002 20.9C66.8273 21.8625 67.5607 22.6417 68.5461 23.1688C69.4857 23.6959 70.5857 23.9709 71.8232 23.9709C73.244 23.9709 74.4586 23.6729 75.4211 23.1229L75.4441 23.1V20.35L75.3295 20.4417C74.8941 20.7625 74.3899 21.0375 73.8857 21.1979C73.3586 21.3813 72.8774 21.4729 72.4649 21.4729C71.2732 21.4729 70.3336 21.1292 69.669 20.3729C68.9815 19.6396 68.6377 18.6313 68.6377 17.3708C68.6377 16.0646 68.9815 15.0333 69.6919 14.2771C70.4023 13.5208 71.3419 13.1312 72.4878 13.1312C73.4503 13.1312 74.4357 13.4521 75.3295 14.0938L75.4441 14.1854V11.275L75.4211 11.2521C75.0316 11.0917 74.5961 10.9083 74.0003 10.7937ZM83.8316 10.7021C83.0983 10.7021 82.4108 10.9312 81.815 11.4125C81.3108 11.825 80.967 12.4208 80.6691 13.1312H80.6462V10.9083H77.667V23.6042H80.6462V17.1188C80.6462 16.0188 80.8754 15.1021 81.3795 14.4375C81.8837 13.75 82.5254 13.4062 83.3046 13.4062C83.5796 13.4062 83.8546 13.475 84.1983 13.5208C84.5191 13.6125 84.7483 13.7042 84.9087 13.8187L85.0233 13.9104V10.9312L84.9546 10.9083C84.7483 10.7708 84.3358 10.7021 83.8316 10.7021ZM91.9442 10.6333C89.8588 10.6333 88.1859 11.2521 87.0171 12.4667C85.8254 13.6813 85.2525 15.3542 85.2525 17.4625C85.2525 19.4334 85.8483 21.0375 86.9942 22.2063C88.14 23.3521 89.6984 23.9479 91.6463 23.9479C93.6859 23.9479 95.313 23.3292 96.4818 22.0917C97.6734 20.8542 98.2464 19.2042 98.2464 17.1646C98.2464 15.1479 97.6964 13.5437 96.5734 12.375C95.4963 11.2062 93.9151 10.6333 91.9442 10.6333ZM94.3276 20.3959C93.7776 21.1063 92.9067 21.45 91.8296 21.45C90.7525 21.45 89.8817 21.1063 89.2629 20.35C88.6442 19.6396 88.3463 18.6083 88.3463 17.3021C88.3463 15.95 88.6671 14.9188 89.2629 14.1854C89.8817 13.4521 90.7296 13.0854 91.8067 13.0854C92.8609 13.0854 93.6859 13.4292 94.2817 14.1396C94.8776 14.85 95.1984 15.8813 95.1984 17.2333C95.1526 18.6083 94.9005 19.6854 94.3276 20.3959ZM104.892 16.1792C103.953 15.7896 103.357 15.4917 103.082 15.2396C102.853 15.0104 102.738 14.6896 102.738 14.2771C102.738 13.9333 102.876 13.5896 103.219 13.3604C103.563 13.1312 103.953 13.0167 104.526 13.0167C105.03 13.0167 105.557 13.1083 106.061 13.2458C106.565 13.3833 107.024 13.5896 107.39 13.8646L107.505 13.9563V11.1604L107.436 11.1375C107.092 11 106.634 10.8625 106.084 10.7479C105.534 10.6562 105.03 10.6104 104.617 10.6104C103.196 10.6104 102.028 10.9542 101.111 11.7104C100.194 12.4208 99.7589 13.3833 99.7589 14.5063C99.7589 15.1021 99.8505 15.6292 100.057 16.0646C100.263 16.5 100.561 16.9125 100.973 17.2563C101.386 17.5771 101.982 17.9438 102.807 18.2875C103.494 18.5854 104.021 18.8146 104.342 18.9979C104.663 19.1813 104.869 19.3875 105.03 19.5479C105.144 19.7313 105.213 19.9604 105.213 20.2584C105.213 21.1063 104.571 21.5188 103.265 21.5188C102.761 21.5188 102.234 21.4271 101.615 21.2209C100.996 21.0146 100.423 20.7167 99.9422 20.3729L99.8276 20.2813V23.1917L99.8964 23.2146C100.332 23.4209 100.859 23.5584 101.501 23.7188C102.142 23.8334 102.715 23.925 103.219 23.925C104.755 23.925 106.015 23.5813 106.909 22.825C107.826 22.0917 108.307 21.1521 108.307 19.9375C108.307 19.0896 108.078 18.3333 107.574 17.7604C106.909 17.2104 106.084 16.6375 104.892 16.1792ZM116.167 10.6333C114.082 10.6333 112.409 11.2521 111.24 12.4667C110.071 13.6813 109.476 15.3542 109.476 17.4625C109.476 19.4334 110.071 21.0375 111.217 22.2063C112.363 23.3521 113.922 23.9479 115.869 23.9479C117.909 23.9479 119.536 23.3292 120.705 22.0917C121.897 20.8542 122.47 19.2042 122.47 17.1646C122.47 15.1479 121.919 13.5437 120.797 12.375C119.719 11.2062 118.138 10.6333 116.167 10.6333ZM118.528 20.3959C117.978 21.1063 117.107 21.45 116.03 21.45C114.93 21.45 114.082 21.1063 113.463 20.35C112.844 19.6396 112.546 18.6083 112.546 17.3021C112.546 15.95 112.867 14.9188 113.463 14.1854C114.082 13.4521 114.93 13.0854 116.007 13.0854C117.038 13.0854 117.886 13.4292 118.482 14.1396C119.078 14.85 119.399 15.8813 119.399 17.2333C119.399 18.6083 119.101 19.6854 118.528 20.3959ZM138.397 13.3604V10.9083H135.395V7.14998L135.303 7.17289L132.461 8.02081L132.393 8.04373V10.9083H127.901V9.30415C127.901 8.57082 128.084 7.9979 128.405 7.63123C128.726 7.26456 129.207 7.08123 129.803 7.08123C130.215 7.08123 130.651 7.1729 131.132 7.37915L131.247 7.4479V4.8583L131.178 4.83539C130.765 4.69789 130.215 4.60622 129.505 4.60622C128.611 4.60622 127.832 4.81247 127.122 5.15622C126.411 5.54581 125.884 6.07289 125.495 6.78331C125.105 7.47081 124.899 8.24998 124.899 9.14373V10.9083H122.813V13.3375H124.899V23.6042H127.901V13.3604H132.393V19.8917C132.393 22.5729 133.653 23.925 136.174 23.925C136.586 23.925 137.022 23.8563 137.434 23.7875C137.87 23.6959 138.19 23.5813 138.374 23.4896L138.397 23.4667V21.0146L138.282 21.1063C138.099 21.2209 137.938 21.3125 137.663 21.3813C137.434 21.45 137.228 21.4729 137.068 21.4729C136.472 21.4729 136.059 21.3354 135.761 20.9917C135.486 20.6709 135.349 20.1438 135.349 19.3646V13.3604H138.397Z" fill="var(--fill-0, white)"/>
<path id="Vector_2" d="M8.09849e-06 0H14.0481V14.048H8.09849e-06V0Z" fill="var(--fill-0, white)"/>
<path id="Vector_3" d="M15.5144 0H29.5624V14.048H15.5144V0Z" fill="var(--fill-0, white)"/>
<path id="Vector_4" d="M8.09849e-06 15.5149H14.0481V29.5629H8.09849e-06V15.5149Z" fill="var(--fill-0, white)"/>
<path id="Vector_5" d="M15.5144 15.5149H29.5624V29.5629H15.5144V15.5149Z" fill="var(--fill-0, white)"/>
</g>
</svg>
