<svg preserveAspectRatio="none" width="100%" height="100%" overflow="visible" style="display: block;" viewBox="0 0 86.0778 30.8258" fill="none" xmlns="http://www.w3.org/2000/svg">
<g id="TRANSPIO">
<path id="Vector" d="M75.8861 18.2201V12.6063C75.8861 11.2281 76.0537 10.0179 76.523 9.14394C77.3276 7.66486 78.9033 6.69002 80.9819 6.69002C83.0605 6.69002 84.6362 7.66486 85.4408 9.14394C85.9101 10.0179 86.0778 11.2281 86.0778 12.6063V18.2201C86.0778 19.5983 85.9101 20.8084 85.4408 21.6824C84.6362 23.1615 83.0605 24.1364 80.9819 24.1364C78.9033 24.1364 77.3276 23.1615 76.523 21.6824C76.0537 20.8084 75.8861 19.5983 75.8861 18.2201ZM79.3056 12.0685V18.7579C79.3056 20.0353 79.9426 20.7076 80.9819 20.7076C82.0212 20.7076 82.6582 20.0353 82.6582 18.7579V12.0685C82.6582 10.7911 82.0212 10.1188 80.9819 10.1188C79.9426 10.1188 79.3056 10.7911 79.3056 12.0685Z" fill="var(--fill-0, white)"/>
<path id="Vector_2" d="M69.967 23.9341V6.89116H73.3866V23.9341H69.967ZM69.967 3.42878V2.31439e-05H73.3866V3.42878H69.967Z" fill="var(--fill-0, white)"/>
<path id="Vector_3" d="M56.9375 30.8258V6.89171H60.3571V8.43802C61.2287 7.46317 61.8992 6.69002 63.609 6.69002C64.9836 6.69002 65.9893 7.19425 66.5928 8.30355C66.9951 9.04309 67.1627 10.0852 67.1627 11.9676V18.4554C67.1627 20.9093 67.0621 21.8841 66.6263 22.5901C66.0564 23.4977 65.2182 24.1364 63.5755 24.1364C62.2345 24.1364 61.1617 23.4977 60.4241 22.3884H60.3571V30.8258H56.9375ZM63.7431 18.6907V12.4382C63.7431 11.06 63.2403 10.1188 62.0669 10.1188C61.0276 10.1188 60.3571 10.9928 60.3571 12.2365V18.8588C60.3571 19.9344 61.0946 20.7076 62.0669 20.7076C63.3744 20.7076 63.7431 19.7664 63.7431 18.6907Z" fill="var(--fill-0, white)"/>
<path id="Vector_4" d="M54.5726 11.6651H51.3542C51.3206 10.5222 50.516 9.91709 49.6109 9.91709C48.538 9.91709 47.9346 10.7575 47.9346 11.6315C47.9346 12.2702 48.1022 12.8752 49.3762 13.3795L51.3877 14.1862C53.9356 15.1611 54.7402 16.9763 54.7402 18.9932C54.7402 21.8169 52.5946 24.1364 49.6444 24.1364C46.9624 24.1364 44.6826 22.3547 44.5485 18.9932H47.767C47.9011 19.9344 48.3369 20.9093 49.6109 20.9093C50.5831 20.9093 51.5218 20.2034 51.5218 19.0604C51.5218 18.1192 51.1195 17.4805 49.812 16.9763L48.1693 16.3712C46.0236 15.5645 44.7162 13.9509 44.7162 11.6651C44.7162 8.77417 46.9959 6.69002 49.745 6.69002C52.5276 6.69002 54.5391 8.8414 54.5726 11.6651Z" fill="var(--fill-0, white)"/>
<path id="Vector_5" d="M32.1199 23.9347V6.89171H35.5395V8.53886H35.6066C36.3106 7.46317 37.2493 6.69002 38.825 6.69002C40.5348 6.69002 42.3451 7.79933 42.3451 10.8583V23.9347H38.9256V12.1357C38.9256 10.8919 38.3221 10.1188 37.2493 10.1188C35.9753 10.1188 35.5395 10.9592 35.5395 12.4719V23.9347H32.1199Z" fill="var(--fill-0, white)"/>
<path id="Vector_6" d="M26.1829 23.9347V22.1867H26.1159C25.2107 23.4304 24.4731 24.1364 22.8304 24.1364C21.2547 24.1364 19.1426 23.3632 19.1426 19.5983C19.1426 15.6989 20.2489 13.8165 24.5402 13.8165C25.0095 13.8165 25.4789 13.8837 26.1829 13.9173V12.1357C26.1829 10.9928 25.7471 10.1188 24.4731 10.1188C23.6015 10.1188 22.7298 10.7239 22.5287 11.8332H19.2096C19.3102 10.3205 19.8466 9.04309 20.7518 8.13548C21.657 7.22787 22.931 6.69002 24.4731 6.69002C27.3228 6.69002 29.6025 8.50525 29.6025 12.0685V23.9347H26.1829ZM26.1829 18.926V16.6065C25.8141 16.5393 25.5459 16.5057 25.2442 16.5057C23.7691 16.5057 22.5622 17.1108 22.5622 18.926C22.5622 20.237 23.2327 21.111 24.339 21.111C25.4789 21.111 26.1829 20.3042 26.1829 18.926Z" fill="var(--fill-0, white)"/>
<path id="Vector_7" d="M10.578 23.9347V6.89171H13.9976V8.70694C15.4056 7.46317 16.5455 6.69002 18.5235 6.69002V10.3205C18.1882 10.186 17.853 10.1188 17.4842 10.1188C16.0426 10.1188 13.9976 11.0264 13.9976 13.8165V23.9347H10.578Z" fill="var(--fill-0, white)"/>
<path id="Vector_8" d="M3.95599 23.9341V3.22709H0V2.31439e-05H11.3316V3.22709H7.37557V23.9341H3.95599Z" fill="var(--fill-0, white)"/>
</g>
</svg>
