<svg preserveAspectRatio="none" width="100%" height="100%" overflow="visible" style="display: block;" viewBox="0 0 41.7203 46.1078" fill="none" xmlns="http://www.w3.org/2000/svg">
<g id="Frame 6">
<rect id="Rectangle 68" x="19.6816" width="4.56147" height="4.56147" fill="var(--fill-0, white)"/>
<rect id="Rectangle 69" x="24.2424" y="4.56293" width="4.56147" height="4.56147" fill="var(--fill-0, white)"/>
<rect id="Rectangle 73" x="33.3662" y="4.56293" width="4.56147" height="4.56147" fill="var(--fill-0, white)"/>
<rect id="Rectangle 70" x="28.8033" y="9.12429" width="4.56147" height="4.56147" fill="var(--fill-0, white)"/>
<rect id="Rectangle 71" x="15.1187" y="9.12429" width="4.56147" height="4.56147" fill="var(--fill-0, white)"/>
<rect id="Rectangle 74" x="4.30075" y="13.6851" width="4.56147" height="4.56147" rx="1.30328" fill="var(--fill-0, white)"/>
<rect id="Rectangle 75" x="9.3206" y="19.1582" width="4.56147" height="4.56147" rx="1.30328" fill="var(--fill-0, white)"/>
<rect id="Rectangle 76" x="4.30075" y="24.4363" width="4.56147" height="4.56147" rx="1.30328" fill="var(--fill-0, white)"/>
<rect id="Rectangle 77" x="0.000706582" y="19.4848" width="3.90983" height="3.90983" rx="1.04262" fill="var(--fill-0, white)"/>
<rect id="Rectangle 78" x="4.62623" y="30.106" width="3.90983" height="3.90983" rx="1.04262" fill="var(--fill-0, white)"/>
<rect id="Rectangle 79" x="9.3206" y="35.3841" width="3.64918" height="3.64918" rx="1.30328" fill="var(--fill-0, white)"/>
<rect id="Rectangle 72" x="10.5557" y="4.56293" width="4.56147" height="4.56147" fill="var(--fill-0, white)"/>
<circle id="Ellipse 6" cx="19.6795" cy="42.097" r="1.95492" fill="var(--fill-0, white)"/>
<path id="Vector" d="M35.8373 29.835C34.7401 29.8348 33.7412 30.2552 32.9928 30.9437C32.7224 31.1856 32.4791 31.4728 32.2649 31.8156C32.1493 31.9976 32.0551 32.1837 31.9773 32.373C31.8173 32.7438 31.7091 33.1423 31.662 33.5593C31.6246 33.7873 31.5952 34.0163 31.5659 34.2444C31.423 35.3565 31.2829 36.4476 30.2303 37.3076C29.8391 37.6637 29.207 38.0888 28.673 38.18C28.2781 38.2474 27.8822 38.2747 27.4944 38.3015L27.4502 38.3046C27.2187 38.3206 26.9902 38.3369 26.7668 38.3621C26.2703 38.4179 25.7986 38.517 25.3732 38.752C25.1955 38.8501 25.0258 38.9719 24.8659 39.1242C24.2837 39.6567 23.9185 40.4225 23.9183 41.2736C23.918 42.8824 25.2219 44.1867 26.8306 44.187C27.4235 44.1872 27.9751 44.0101 28.4353 43.7059C28.5024 43.6616 28.5676 43.6145 28.6306 43.5649C29.2249 43.0974 29.6329 42.4036 29.7245 41.6133C29.7461 41.5065 29.766 41.4 29.7856 41.2948C29.8352 41.0287 29.8833 40.7709 29.9548 40.5379C30.438 39.1768 31.7311 38.1982 33.155 38.0444C33.7677 37.9785 34.2791 38.0489 34.8278 38.1243L34.8705 38.1302L34.9167 38.1365C35.2124 38.2026 35.52 38.2374 35.8356 38.2375C38.1559 38.238 40.0372 36.3574 40.0377 34.0371C40.0381 31.7168 38.1575 29.8355 35.8373 29.835Z" fill="var(--fill-0, white)"/>
<circle id="Ellipse 7" cx="33.1694" cy="41.1188" r="1.30328" fill="var(--fill-0, white)"/>
<g id="Vector_2">
<path fill-rule="evenodd" clip-rule="evenodd" d="M10.3835 30.2724C10.2893 30.3361 10.2004 30.4072 10.1178 30.4848C10.2007 30.4048 10.2888 30.3348 10.3835 30.2724Z" fill="var(--fill-0, white)"/>
<path fill-rule="evenodd" clip-rule="evenodd" d="M10.3835 30.2724C10.2893 30.3361 10.2004 30.4072 10.1178 30.4848C9.96866 30.6286 9.83633 30.8047 9.71301 31.0266C9.54104 31.3361 9.45398 31.6939 9.45009 32.0527C9.44205 32.7945 9.78933 33.541 10.4765 33.8759C10.6217 33.9468 10.7584 33.9982 10.8911 34.0359C11.1611 34.1125 11.4143 34.1322 11.6883 34.1429C11.7453 34.1451 11.8032 34.1469 11.8623 34.1488C11.9936 34.153 12.131 34.1573 12.2781 34.1665C13.2548 34.2612 14.0163 34.9446 14.2954 35.883C14.3841 36.1813 14.4157 36.4808 14.4465 36.7724C14.5195 37.4645 14.5877 38.1117 15.4043 38.5902C15.7381 38.7857 16.2067 38.8965 16.5953 38.8408C18.3192 38.5926 18.9489 36.4642 17.6637 35.4236C17.2123 35.0581 16.7169 34.9971 16.2148 34.9352C15.5394 34.852 14.8518 34.7673 14.2429 33.9383C13.9751 33.5754 13.8004 33.1525 13.7342 32.7069C13.7081 32.5358 13.6992 32.3634 13.6904 32.1916C13.6886 32.1567 13.6868 32.1217 13.6848 32.0868C13.6772 31.9501 13.6674 31.8141 13.6467 31.6801C13.6298 31.5704 13.6076 31.4663 13.5805 31.3676C13.3462 30.5158 12.742 30.0674 11.952 29.9454C11.8161 29.9244 11.6747 29.913 11.5288 29.911C11.3215 29.9147 11.1214 29.9482 10.9326 30.0075C10.726 30.0814 10.5452 30.1658 10.3835 30.2724Z" fill="var(--fill-0, white)"/>
</g>
</g>
</svg>
