<svg preserveAspectRatio="none" width="100%" height="100%" overflow="visible" style="display: block;" viewBox="0 0 22.2611 29.5707" fill="none" xmlns="http://www.w3.org/2000/svg">
<g id="Bokk">
<path id="bokk" d="M5.06991 0.0364499C5.28295 0.0406652 5.4914 0.0447917 5.69357 0.0485306C6.60416 0.0653757 7.50362 0.0492493 8.38842 0.0333893H8.38926C12.506 -0.040395 16.305 -0.108486 19.4282 3.17343C20.955 4.76324 21.7191 6.84861 21.5484 8.95978C21.3323 11.4989 20.1929 12.9884 18.1677 14.5808C18.8158 14.9873 19.4066 15.3659 19.9636 15.8769C22.7887 18.4685 22.8327 22.2092 21.0509 25.3019C20.59 26.0419 20.0116 26.7145 19.3347 27.2983C18.2 28.2886 16.7978 28.985 15.2722 29.3153C13.9047 29.6122 11.2128 29.5797 9.21262 29.5556C8.75555 29.55 8.3346 29.545 7.97383 29.5443C7.12286 29.5426 6.22885 29.5495 5.32157 29.5565C3.52983 29.5703 1.68633 29.5845 0.0203372 29.5331C-0.00938251 28.8028 -0.000131315 27.9591 0.00868829 27.1549L0.00870028 27.1537C0.0125766 26.8001 0.016369 26.4541 0.0167206 26.1287L0.0227229 19.7196L0.0209166 0.0536261C1.54053 -0.0334098 3.44253 0.00423738 5.06991 0.0364499ZM13.2257 19.0521H8.38067V23.8151H13.2257V19.0521Z" fill="var(--fill-0, white)"/>
</g>
</svg>
