<svg preserveAspectRatio="none" width="100%" height="100%" overflow="visible" style="display: block;" viewBox="0 0 564.77 296.043" fill="none" xmlns="http://www.w3.org/2000/svg">
<g id="Olivei logo &#229;&#174;&#154;&#231;&#168;&#191;&#231;&#137;&#136;">
<path id="Vector" d="M92.5627 102.207C107.245 101.834 121.817 104.823 135.167 110.945C147.174 116.77 157.201 126 163.999 137.484C171.553 149.923 175.33 164.88 175.531 182.506C176.128 198.329 172.355 214.01 164.628 227.83C150.628 250.845 126.858 262.478 93.7965 262.881C75.8683 263.108 61.0624 260.363 49.3033 254.395C37.3376 248.545 27.3234 239.353 20.4722 227.931C12.9703 214.291 9.23328 198.899 9.64472 183.337C9.64472 165.485 13.5476 150.125 21.1772 137.484C35.3032 114.042 59.1991 102.207 92.5627 102.207ZM92.5627 110.718C83.2702 110.903 74.1587 113.321 65.9977 117.768C55.8754 123.225 47.5693 131.523 42.1018 141.639C34.9476 154.061 31.2523 168.173 31.4003 182.506C31.1747 196.913 34.874 211.11 42.1018 223.575C47.7403 233.556 56.0045 241.803 65.9977 247.421C74.0836 252.057 83.242 254.496 92.5627 254.496C101.883 254.496 111.042 252.057 119.128 247.421C129.092 241.842 137.292 233.58 142.797 223.575C150.025 211.11 153.724 196.913 153.498 182.506C153.646 168.173 149.951 154.061 142.797 141.639C137.355 131.58 129.14 123.295 119.128 117.768C110.964 113.326 101.854 110.908 92.5627 110.718Z" fill="var(--fill-0, #E5E7EB)"/>
<path id="Vector_2" d="M213.021 97.0436H224V260.185H202.924V107.141C202.921 105.814 203.18 104.499 203.686 103.273C204.192 102.046 204.936 100.932 205.874 99.9936C206.812 99.0553 207.927 98.3117 209.153 97.8054C210.38 97.2992 211.694 97.0403 213.021 97.0436Z" fill="var(--fill-0, #E5E7EB)"/>
<path id="Vector_3" d="M274.664 158.332H269.426C265.419 158.332 261.576 159.923 258.743 162.757C255.91 165.59 254.318 169.433 254.318 173.44V260.084H274.764L274.664 158.332Z" fill="var(--fill-0, #E5E7EB)"/>
<path id="Vector_4" d="M276.521 116.282C276.495 118.234 275.975 120.149 275.01 121.847C274.112 123.61 272.725 125.078 271.015 126.074C269.305 127.069 267.344 127.551 265.366 127.462C263.42 127.41 261.52 126.854 259.852 125.85C258.093 124.962 256.632 123.578 255.652 121.868C254.672 120.158 254.215 118.198 254.338 116.231C254.305 114.215 254.781 112.223 255.722 110.44C256.62 108.676 258.008 107.209 259.718 106.213C261.428 105.217 263.389 104.735 265.366 104.825C267.368 104.912 269.322 105.455 271.082 106.411C272.87 107.327 274.342 108.756 275.311 110.515C276.281 112.273 276.702 114.282 276.521 116.282Z" fill="var(--fill-0, #A5C34A)"/>
<path id="Vector_5" d="M553.96 153.296C551.288 153.296 548.727 154.357 546.838 156.246C544.949 158.135 543.888 160.696 543.888 163.368V260.135H564.309V153.296H553.96Z" fill="var(--fill-0, #E5E7EB)"/>
<path id="Vector_6" d="M564.731 116.281C564.74 118.133 564.29 119.959 563.422 121.594C562.571 123.253 561.262 124.633 559.651 125.57C558.04 126.507 556.194 126.963 554.332 126.882C552.492 126.841 550.696 126.32 549.119 125.371C547.454 124.535 546.072 123.227 545.145 121.611C544.219 119.994 543.788 118.141 543.907 116.281C543.873 114.37 544.323 112.482 545.216 110.792C546.063 109.123 547.373 107.734 548.99 106.791C550.607 105.849 552.462 105.393 554.332 105.479C556.22 105.563 558.064 106.079 559.72 106.99C561.373 107.879 562.728 109.233 563.618 110.885C564.509 112.536 564.896 114.412 564.731 116.281Z" fill="var(--fill-0, #A5C34A)"/>
<path id="Vector_7" d="M295.966 152.062H317.269L355.593 242.105L392.205 152.062H404.341L359.219 260.714H340.485L295.966 152.062Z" fill="var(--fill-0, #E5E7EB)"/>
<path id="Vector_8" d="M512.466 234.35L508.815 232.135C506.383 236.691 503.069 240.718 499.066 243.982C495.063 247.246 490.451 249.681 485.498 251.145H485.372C484.301 251.471 483.207 251.715 482.099 251.876H481.822C479.326 252.304 476.8 252.539 474.268 252.581C449.088 252.807 435.264 238.908 433.275 210.48C433.113 209.278 433.046 208.066 433.073 206.854H520.801C520.599 194.264 519.063 184.62 516.218 177.771C513.656 171.903 509.922 166.621 505.246 162.248C500.57 157.875 495.049 154.503 489.023 152.339C482.133 149.896 474.853 148.736 467.545 148.914C440.577 148.914 422.825 160.245 414.49 182.681C412.208 189.503 411.101 196.664 411.217 203.857C410.939 214.364 413.358 224.767 418.242 234.073C424.386 245.122 434.477 253.441 446.494 257.365C454.383 259.748 462.607 260.828 470.843 260.563C475.98 260.605 481.114 260.277 486.203 259.581C486.302 259.608 486.407 259.608 486.505 259.581C487.236 259.581 487.941 259.379 488.621 259.253C494.148 258.119 499.376 255.836 503.966 252.553C508.555 249.269 512.403 245.058 515.261 240.192C515.891 239.189 516.455 238.146 516.948 237.07L513.801 235.181L512.466 234.35ZM450.297 162.738C455.539 158.981 461.825 156.957 468.275 156.947C474.505 157.048 480.523 159.228 485.372 163.141C493.934 169.99 498.315 180.767 498.743 195.221C498.705 196.292 498.781 197.364 498.97 198.418H433.124C434.66 181.749 440.35 169.688 450.297 162.738Z" fill="var(--fill-0, #E5E7EB)"/>
<path id="Vector_9" d="M415.85 70.1007C415.85 70.1007 429.196 49.3775 471.926 51.6941C514.657 54.0107 533.214 75.5396 533.214 75.5396C533.214 75.5396 500.48 92.6872 470.466 90.0685C440.451 87.4498 415.85 70.1007 415.85 70.1007Z" fill="var(--fill-0, #A5C34A)"/>
<path id="Vector_10" d="M15.0571 182.279C15.5995 184.84 16.306 187.363 17.1722 189.833C18.0535 192.351 19.0859 194.869 20.1939 197.387C27.0319 212.543 37.7506 225.624 51.266 235.308C60.3225 241.81 70.3391 246.856 80.9533 250.265C91.6669 253.655 102.735 255.801 113.939 256.661C136.205 258.626 158.541 253.76 177.972 242.711C187.688 237.12 196.757 230.474 205.016 222.895C213.407 215.176 221.328 206.961 228.735 198.294C236.289 189.682 243.642 180.668 251.045 171.603C254.771 167.096 258.599 162.563 262.351 158.056L273.807 144.811C281.487 135.948 289.419 127.185 297.955 118.8C306.513 110.457 315.781 102.875 325.653 96.1382C345.601 82.7114 368.218 73.7607 391.952 69.9006C403.597 67.9228 415.393 66.9623 427.204 67.0301C438.991 67.0277 450.765 67.7763 462.456 69.2711L462.23 71.7891C450.643 71.2517 439.036 71.3189 427.456 71.9906C415.963 72.7337 404.542 74.3329 393.287 76.7748C382.125 79.1866 371.24 82.7388 360.805 87.3756C350.457 92.0261 340.625 97.748 331.47 104.448C313.088 117.768 297.779 134.89 283.023 152.793L271.894 166.29C268.192 170.696 264.541 175.204 260.89 179.736C253.588 188.826 246.286 198.017 238.555 206.981C230.802 216.065 222.466 224.636 213.602 232.639C204.581 240.783 194.653 247.863 184.015 253.74C162.33 265.52 137.626 270.57 113.058 268.244C100.981 267.154 89.0584 264.747 77.5037 261.068C65.815 257.341 54.7731 251.828 44.7696 244.726C29.6421 233.854 17.6619 219.172 10.0463 202.171C8.78729 199.385 7.65417 196.514 6.64697 193.56C5.60686 190.521 4.76575 187.417 4.12896 184.268L15.0571 182.279Z" fill="var(--fill-0, #D7E2B6)"/>
<path id="Vector_11" d="M342.021 77.8567C342.021 77.8567 344.036 17.4246 415.824 0C415.849 0 417.864 57.5112 342.021 77.8567Z" fill="var(--fill-0, #D7E2B6)"/>
<path id="Vector_12" d="M348.719 97.3215C348.719 97.3215 415.849 74.6595 454.475 116.207C454.475 116.207 399.935 145.264 348.719 97.3215Z" fill="var(--fill-0, #D7E2B6)"/>
<path id="Vector_13" d="M266.002 160.397L312.484 80.5763" stroke="var(--stroke-0, #A5C34A)" stroke-width="6.17806" stroke-miterlimit="10"/>
<path id="Vector_14" d="M265.398 170.116C270.766 170.116 275.117 165.765 275.117 160.397C275.117 155.029 270.766 150.677 265.398 150.677C260.03 150.677 255.678 155.029 255.678 160.397C255.678 165.765 260.03 170.116 265.398 170.116Z" fill="var(--fill-0, #A5C34A)"/>
<path id="Vector_15" d="M265.395 166.718C268.886 166.718 271.715 163.888 271.715 160.398C271.715 156.907 268.886 154.078 265.395 154.078C261.905 154.078 259.075 156.907 259.075 160.398C259.075 163.888 261.905 166.718 265.395 166.718Z" fill="var(--fill-0, #070C05)"/>
<path id="Vector_16" d="M8.6126 186.836L12.163 108.577" stroke="var(--stroke-0, #D7E2B6)" stroke-width="6.17806" stroke-miterlimit="10"/>
<path id="Vector_17" d="M8.61158 195.449C13.3676 195.449 17.2232 191.593 17.2232 186.837C17.2232 182.081 13.3676 178.225 8.61158 178.225C3.85554 178.225 0 182.081 0 186.837C0 191.593 3.85554 195.449 8.61158 195.449Z" fill="var(--fill-0, #D7E2B6)"/>
<path id="Vector_18" d="M8.61106 192.427C11.6983 192.427 14.201 189.924 14.201 186.837C14.201 183.75 11.6983 181.247 8.61106 181.247C5.5238 181.247 3.02109 183.75 3.02109 186.837C3.02109 189.924 5.5238 192.427 8.61106 192.427Z" fill="var(--fill-0, #070C05)"/>
<path id="Vector_19" d="M12.1616 116.659C16.0138 116.659 19.1365 113.537 19.1365 109.685C19.1365 105.832 16.0138 102.71 12.1616 102.71C8.30952 102.71 5.18676 105.832 5.18676 109.685C5.18676 113.537 8.30952 116.659 12.1616 116.659Z" fill="var(--fill-0, #D7E2B6)"/>
<path id="Vector_20" d="M12.1623 114.217C14.6655 114.217 16.6947 112.187 16.6947 109.684C16.6947 107.181 14.6655 105.152 12.1623 105.152C9.65915 105.152 7.62992 107.181 7.62992 109.684C7.62992 112.187 9.65915 114.217 12.1623 114.217Z" fill="var(--fill-0, #070C05)"/>
<path id="Vector_21" d="M91.8334 267.713C97.2014 267.713 101.553 263.362 101.553 257.994C101.553 252.626 97.2014 248.274 91.8334 248.274C86.4655 248.274 82.1139 252.626 82.1139 257.994C82.1139 263.362 86.4655 267.713 91.8334 267.713Z" fill="var(--fill-0, #A5C34A)"/>
<path id="Vector_22" d="M91.8302 257.995L166.439 289.067" stroke="var(--stroke-0, #A5C34A)" stroke-width="6.17806" stroke-miterlimit="10"/>
<path id="Vector_23" d="M91.8308 264.315C95.3213 264.315 98.1509 261.486 98.1509 257.995C98.1509 254.505 95.3213 251.675 91.8308 251.675C88.3402 251.675 85.5106 254.505 85.5106 257.995C85.5106 261.486 88.3402 264.315 91.8308 264.315Z" fill="var(--fill-0, #070C05)"/>
<path id="Vector_24" d="M166.439 296.042C170.292 296.042 173.414 292.92 173.414 289.067C173.414 285.215 170.292 282.093 166.439 282.093C162.587 282.093 159.465 285.215 159.465 289.067C159.465 292.92 162.587 296.042 166.439 296.042Z" fill="var(--fill-0, #A5C34A)"/>
<path id="Vector_25" d="M166.438 293.599C168.941 293.599 170.971 291.57 170.971 289.067C170.971 286.564 168.941 284.535 166.438 284.535C163.935 284.535 161.906 286.564 161.906 289.067C161.906 291.57 163.935 293.599 166.438 293.599Z" fill="var(--fill-0, #070C05)"/>
<path id="Vector_26" d="M312.484 87.5517C316.337 87.5517 319.459 84.429 319.459 80.5769C319.459 76.7247 316.337 73.602 312.484 73.602C308.632 73.602 305.51 76.7247 305.51 80.5769C305.51 84.429 308.632 87.5517 312.484 87.5517Z" fill="var(--fill-0, #A5C34A)"/>
<path id="Vector_27" d="M312.483 85.1094C314.986 85.1094 317.015 83.0802 317.015 80.577C317.015 78.0738 314.986 76.0446 312.483 76.0446C309.98 76.0446 307.951 78.0738 307.951 80.577C307.951 83.0802 309.98 85.1094 312.483 85.1094Z" fill="var(--fill-0, #070C05)"/>
</g>
</svg>
